<svg id="Layer_1" data-name="Layer 1" xmlns="http://www.w3.org/2000/svg" xmlns:xlink="http://www.w3.org/1999/xlink" viewBox="0 0 699.28 169.85"><defs><style>.cls-1{fill:#26316a;}.cls-2{fill:url(#linear-gradient);}.cls-3{font-size:26.77px;fill:#6f6b93;font-family:Open Sans;}</style><linearGradient id="linear-gradient" x1="21.91" y1="166.78" x2="145.3" y2="43.4" gradientUnits="userSpaceOnUse"><stop offset="0" stop-color="#26316a"/><stop offset="0.07" stop-color="#2a3269"/><stop offset="0.14" stop-color="#363664"/><stop offset="0.2" stop-color="#4a3d5d"/><stop offset="0.27" stop-color="#674653"/><stop offset="0.34" stop-color="#8b5247"/><stop offset="0.41" stop-color="#b86137"/><stop offset="0.48" stop-color="#ec7225"/><stop offset="0.48" stop-color="#f17423"/><stop offset="1" stop-color="#9c9c9c"/></linearGradient></defs><title>RIPE NCC Logo2015</title><path class="cls-1" d="M238.2,105L222.34,76.62h-9.11V105H193.11V24.79h35.08c8,0,14.17,1.69,19.22,5.4,6.18,4.5,9.44,11.92,9.44,19.9,0,9.78-4.72,19.34-15.18,23.61L260.12,105H238.2ZM225.6,40.53H213.12V61.78H225.6c7.2,0,11.69-4.16,11.69-10.68C237.29,43.68,232.35,40.53,225.6,40.53Z"/><path class="cls-1" d="M269.21,105V24.79h20.12V105H269.21Z"/><path class="cls-1" d="M339.69,77.18H323.05V105H303V24.79h36.2c17.76,0,28.11,10.91,28.11,25.75C367.35,63.69,359.26,77.18,339.69,77.18ZM336,40.53H323.05V61.78H336c6.86,0,11.69-3.6,11.69-10.79C347.68,44,343.18,40.53,336,40.53Z"/><path class="cls-1" d="M377.45,105V24.79h59v16.3h-39V56.38h32.83V72.57H397.47v16H436.7V105H377.45Z"/><path class="cls-1" d="M527.41,105L496,57.85h-0.23V105H477.27V24.79h19.45L527.18,70.1h0.22V24.79h18.66V105H527.41Z"/><path class="cls-1" d="M591.81,106.3c-17.65,0-34.18-8.88-34.18-28.89V53c0-19.67,16-29.57,33.62-29.57,15.63,0,32.6,7.87,32.6,26.42V55H605V51.77c0-8.32-7.08-11.92-13.27-11.92-7.08,0-13.94,3.71-13.94,12.82V77c0,8.21,6,12.93,14.16,12.93,6.18,0,13-3.49,13-11.92V74.63h18.89V80C623.86,98.43,607.33,106.3,591.81,106.3Z"/><path class="cls-1" d="M667.24,106.3c-17.65,0-34.18-8.88-34.18-28.89V53c0-19.67,16-29.57,33.62-29.57,15.63,0,32.6,7.87,32.6,26.42V55H680.39V51.77c0-8.32-7.08-11.92-13.27-11.92-7.08,0-13.94,3.71-13.94,12.82V77c0,8.21,6,12.93,14.16,12.93,6.18,0,13-3.49,13-11.92v-3h18.89V80C699.28,98.43,682.75,106.3,667.24,106.3Z"/><path class="cls-2" d="M126.89,71.61V25L83.61,0,40.33,25V71.61L0,94.89v50l43.28,25,40.33-23.28,40.33,23.28,43.28-25v-50ZM83.61,93.13L49.19,73.26,83.61,53.39,118,73.26ZM46.23,78.43L80.65,98.3V138L46.23,118.12V78.43ZM86.56,98.3L121,78.43v39.69L86.56,138V98.3ZM46.23,28.4L83.61,6.82,121,28.4V68.14L83.61,46.57,46.23,68.14V28.4ZM5.91,141.46V98.3L40.33,78.43v43.1l37.42,21.61L43.28,163Zm155.4,0L123.93,163l-34.47-19.9,37.42-21.61V78.43L161.3,98.3v43.15Z"/><text class="cls-3" transform="translate(191.59 144.96)">RIPE NETWORK COORDINATION CENTRE</text></svg>